<?xml version="1.0" encoding="utf-8"?>
<!-- Generator: Adobe Illustrator 23.0.3, SVG Export Plug-In . SVG Version: 6.00 Build 0)  -->
<svg version="1.1" id="Layer_1" xmlns="http://www.w3.org/2000/svg" xmlns:xlink="http://www.w3.org/1999/xlink" x="0px" y="0px"
	 viewBox="0 0 275 200" style="enable-background:new 0 0 275 200;" xml:space="preserve">
<style type="text/css">
	.st0{fill:#F39200;}
	.st1{fill:#E94E1B;}
</style>
<g>
	<path class="st0" d="M94.5,142.8c0,1.4,0,2.9,0,4.3c0.1,1.2-0.2,2.4,0.3,3.7c1.2,0,2.3,0,3.4,0c0,1.3,0,2.6,0,4.1
		c1.4,0.1,2.6,0.2,4,0.2c0.1,1.1,0.2,2.1,0.3,3.5c1,0.1,2.1,0.2,3.4,0.3c0.1,1.3,0.2,2.5,0.2,4c2.6,0,5.1,0,7.7,0
		c0.1,1.3,0.1,2.4,0.2,3.6c1.3,0.1,2.5,0.2,3.9,0.3c0.1,1.4,0.1,2.7,0.2,4c-6.4,0-12.8,0-19.2,0c-13.5,0-27,0-40.5,0
		c-1.2,0-2.4,0-3.9,0c-0.1-1.2-0.2-2.3-0.3-3.6c-1.1-0.1-2.2-0.2-3.5-0.3c-0.1-1.3-0.2-2.6-0.3-3.9c-1.3-0.1-2.5-0.2-3.9-0.3
		c0-2.6-0.1-5.1-0.1-7.6c0-2.5,0-5.1,0-7.8c-1.2-0.1-2.3-0.2-3.5-0.3c-0.5-1.9-0.1-3.8-0.2-5.7c-0.1-1.8,0-3.7,0-5.7
		c-1.3-0.1-2.5-0.2-3.9-0.3c-0.4-5.3-0.1-10.5-0.2-15.7c-0.1-5.1,0-10.3,0-15.6c1.5-0.1,2.6-0.2,4-0.3c0-3.9,0-7.7,0-11.7
		c1.3-0.1,2.4-0.2,3.8-0.3c0.1-2.5,0.2-5,0.2-7.6c1.4-0.1,2.6-0.2,3.9-0.3c0-2.5,0-5,0-7.6c1.3-0.1,2.4-0.2,3.7-0.3
		c0.1-2.5,0.1-5,0.2-7.6c1.4-0.1,2.6-0.2,3.9-0.3c0-2.5,0-5,0-7.6c1.3-0.1,2.4-0.2,3.7-0.3c0.1-1.1,0.2-2.2,0.3-3.5
		c1.2-0.1,2.4-0.2,3.9-0.2c0.1-1.2,0.1-2.5,0.2-3.9c1.2-0.1,2.3-0.1,3.6-0.2c0.1-1.2,0.1-2.3,0.2-3.5c1.3-0.1,2.5-0.2,3.9-0.3
		c0.1-1.3,0.2-2.5,0.3-3.9c2.5,0,5,0,7.6,0c0.1-1.3,0.2-2.4,0.3-3.7c1.1-0.1,2.2-0.2,3.5-0.3c0.1-1.2,0.2-2.4,0.3-3.7
		c2.4-0.6,5,0,7.6-0.4c0.1-1.1,0.2-2.2,0.3-3.6c2.5,0,5,0,7.7,0c0.1-1.4,0.1-2.5,0.2-3.8c0.7-0.1,1.4-0.3,2-0.3c3.6,0,7.2,0,10.8,0
		c0.9,0,1.7,0,2.7,0c0.1-1.3,0.2-2.4,0.3-3.4c2.1-0.4,24.7-0.5,27.7-0.1c0,1,0,2,0,3.2c3.3,0.5,6.6,0.2,9.8,0.3c3.1,0,6.3,0,9.7,0
		c0.1,1.3,0.1,2.5,0.2,4c2.4,0.4,5,0,7.6,0.2c0.1,1.1,0.2,2.2,0.3,3.6c2.5,0,5,0,7.6,0c0.1,1.5,0.2,2.7,0.3,4.1c2.6,0,5,0,7.5,0
		c0.1,1.3,0.2,2.4,0.3,3.7c1.2,0.1,2.4,0.1,3.9,0.2c0.1,1.3,0.1,2.5,0.2,4c1.2,0.1,2.3,0.1,3.6,0.2c0.1,1.2,0.1,2.2,0.2,3.3
		c1.2,0.8,2.6,0,3.9,0.6c0.1,1.2,0.1,2.4,0.2,3.7c1.2,0.1,2.3,0.2,3.5,0.3c0.1,1.1,0.2,2.2,0.3,3.5c1.2,0.1,2.4,0.2,3.8,0.3
		c0.1,1.3,0.2,2.5,0.3,3.9c1.2,0.1,2.2,0.1,3.5,0.2c0.1,1.1,0.2,2.2,0.3,3.4c1.1,0.7,2.5,0,3.9,0.6c0,1.2,0.1,2.5,0.1,3.8
		c0,1.4-0.1,2.8-0.1,4.2c-1.5,0.1-2.7,0.1-4,0.2c-0.1,1.3-0.1,2.3-0.2,3.4c-1.2,0.1-2.3,0.2-3.5,0.3c-0.1,1.4-0.1,2.7-0.2,4
		c-1.5,0.1-2.7,0.1-3.9,0.2c-0.1,1.3-0.2,2.3-0.3,3.5c-1.2,0.1-2.3,0.2-3.4,0.3c-0.1,1.4-0.1,2.6-0.2,3.9c-1.4,0.1-2.7,0.2-3.9,0.2
		c-0.1,1.3-0.2,2.4-0.3,3.4c-1.3,0.1-2.3,0.2-3.4,0.3c-0.1,1.4-0.1,2.7-0.2,4c-1.5,0.1-2.7,0.1-3.9,0.2c-0.1,1.2-0.2,2.3-0.3,3.5
		c-1.2,0.1-2.3,0.2-3.4,0.3c-0.1,1.4-0.1,2.6-0.2,3.9c-1.4,0.1-2.7,0.2-4,0.3c-0.1,1.3-0.2,2.4-0.3,3.4c-1.3,0.1-2.3,0.2-3.4,0.2
		c-0.1,1.2-0.2,2.3-0.3,3.5c-1.3,0.1-2.4,0.2-3.8,0.3c-0.1,1.4-0.3,2.6-0.4,3.9c-1.2,0.1-2.3,0.2-3.4,0.3c-0.1,1.3,0,2.6-0.1,3.5
		l-4.1,0.2c-0.1,1.1-0.2,2.6-0.3,3.8c-1.3,0.1-2.4,0.2-3.4,0.3c-0.1,1.3-0.2,2.3-0.3,3.4c-1.3,0.1-2.5,0.2-3.8,0.3
		c-0.2,1.5-0.3,2.7-0.5,3.9c-1.2,0.1-2.3,0.2-3.3,0.3c-0.1,1.2-0.2,2.3-0.3,3.4c-1.4,0.1-2.6,0.3-3.9,0.4c-0.1,1.4-0.2,2.6-0.3,3.8
		c-1.2,0.1-2.3,0.2-3.6,0.3c0,1.5,0,2.8,0,4.1c-1.3-0.3-2.5-0.5-4-0.8c-0.1-0.9-0.2-2-0.3-3.3c-1.1-0.1-2.2-0.2-3.5-0.3
		c-0.1-1.2-0.2-2.3-0.4-3.7c-1.2-0.1-2.4-0.3-3.7-0.4c-0.1-0.6-0.2-1.1-0.2-1.7c0-0.5,0-1,0-1.7c-1.2-0.1-2.3-0.2-3.6-0.3
		c-0.1-1.2-0.2-2.4-0.4-3.8c-1.2-0.1-2.4-0.3-3.7-0.4c-0.1-0.6-0.2-1.1-0.2-1.7c0-0.5,0-1,0-1.7c-1.2-0.1-2.3-0.2-3.6-0.3
		c-0.1-1.1-0.2-2.2-0.3-3.5c-1.2-0.1-2.4-0.2-3.9-0.3c0-1.3,0-2.5,0-4c-1.4-0.1-2.5-0.1-3.7-0.2c0-2.6,0-5,0-7.6
		c1-0.1,2.1-0.2,3.5-0.3c0.1-1.2,0.1-2.5,0.2-3.9c1.3-0.1,2.5-0.1,3.9-0.2c0.1-1.2,0.2-2.3,0.3-3.5c1.1-0.1,2.2-0.2,3.5-0.3
		c0.1-1.3,0.2-2.4,0.3-3.8c1.3-0.1,2.5-0.2,3.9-0.3c0-1.2,0-2.2,0-3.4c1.2-0.1,2.3-0.2,3.7-0.3c0.1-1.2,0.1-2.5,0.2-3.9
		c1.3-0.1,2.5-0.1,3.9-0.2c0.1-1.2,0.2-2.3,0.3-3.5c1.1-0.1,2.2-0.2,3.5-0.3c0.1-1.3,0.2-2.4,0.3-3.8c1.3-0.1,2.5-0.2,3.9-0.3
		c0-1.2,0-2.2,0-3.4c1.2-0.1,2.3-0.2,3.6-0.3c0-1.1,0-2.1,0-3.3l0.1-0.9c0-1.2,0-2.2,0-3.4c-10.3,0-20.5,0-30.8,0
		c-0.1,1.3-0.2,2.5-0.3,3.9c-2.7,0.1-5.1,0.2-7.6,0.3c-0.1,1.3-0.2,2.3-0.2,3.5c-1.4,0.1-2.7,0.2-3.8,0.2c-0.6,1.4,0.2,2.9-0.6,4
		c-1.1,0.1-2.1,0.2-3.2,0.2c-0.1,1.2-0.2,2.3-0.3,3.6c-1.4,0-2.6,0-3.9,0c-0.1,1.5-0.2,2.7-0.3,4c-1.3,0.1-2.4,0.2-3.4,0.3
		c-0.5,2.6,0.2,5.1-0.5,7.5c-1.4,0.1-2.5,0.2-4,0.4c0,2.6,0,5.1,0,7.6c-1.3,0.1-2.3,0.1-3.6,0.2c0,9,0,17.8,0,26.7
		c1.4,0,2.5,0,3.6,0c0,1.4,0,2.7,0,4.1c0,1.2,0,2.4,0,3.7c1.3,0,2.4,0,3.6,0C94.5,142.8,94.5,142.1,94.5,142.8z M161.1,166.8
		c0,1.3,0,3,0,4.3c0,0,43.5-0.2,46.4-0.2s5.6,0,8.4,0c2.8,0,5.6,0,8.6,0c0-2.6,0-5.1,0-7.7c1.3-0.1,2.4-0.2,3.7-0.3
		c0-3.7,0-7.4,0-11.3c1.5-0.1,2.7-0.1,4-0.2l0.3-5.9c0.1-2,0-4,0-6l0-4.1c0,0-0.8,0-1,0c-14.7,0-46.9,0.2-46.9,0.2c0,1.7,0,4,0,5.9
		c0,1.9,0,3.8-0.1,5.7c-1.4,0.1-2.5,0.2-3.6,0.3c-0.1,1.3-0.2,2.4-0.3,3.5c-1.4,0.1-2.5,0.2-3.8,0.3c-0.1,1.4-0.2,2.6-0.3,3.8
		c-1.3,0.1-2.4,0.2-3.5,0.3c-0.1,1.3-0.2,2.4-0.3,3.5c-1.3,0.1-2.5,0.2-3.8,0.3c-0.1,1.4-0.2,2.6-0.3,3.9c-1.2,0.1-2.3,0.1-3.5,0.2
		c-0.1,1.3-0.2,2.4-0.3,3.6C164.9,166.6,164.9,166.6,161.1,166.8z"/>
	<path class="st1" d="M145.5,147.8c0-1.3,0-2.6,0-4.1c1.2-0.1,2.3-0.2,3.6-0.3c0.1-1.2,0.2-2.4,0.3-3.8c1.3-0.1,2.5-0.3,3.9-0.4
		c0.1-1,0.2-2.1,0.3-3.4c1.1-0.1,2.1-0.2,3.3-0.3c0.1-1.2,0.3-2.4,0.5-3.9c1.3-0.1,2.5-0.2,3.8-0.3c0.1-1.1,0.2-2.1,0.3-3.4
		c1-0.1,2.1-0.2,3.4-0.3c0.1-1.2,0-2.9,0.2-4l4.3-0.1c0.1-0.9,0-2.3,0.1-3.5c1.1-0.1,2.2-0.2,3.4-0.3c0.1-1.3,0.3-2.5,0.4-3.9
		c1.4-0.1,2.5-0.2,3.8-0.3c0.1-1.1,0.2-2.2,0.3-3.5c1.1-0.1,2.1-0.1,3.4-0.2c0.1-1.1,0.2-2.1,0.3-3.4c1.3-0.1,2.5-0.2,4-0.3
		c0.1-1.3,0.1-2.5,0.2-3.9c1.1-0.1,2.2-0.2,3.4-0.3c0.1-1.1,0.2-2.2,0.3-3.5c1.3-0.1,2.5-0.1,3.9-0.2c0.1-1.3,0.1-2.6,0.2-4
		c1.1-0.1,2.1-0.2,3.4-0.3c0.1-1,0.2-2.1,0.3-3.4c1.3-0.1,2.5-0.2,3.9-0.2c0.1-1.3,0.1-2.5,0.2-3.9c1.1-0.1,2.2-0.2,3.4-0.3
		c0.1-1.1,0.2-2.2,0.3-3.5c1.3-0.1,2.5-0.1,3.9-0.2c0.1-1.3,0.1-2.5,0.2-4c1.2-0.1,2.3-0.2,3.5-0.3c0.1-1.1,0.1-2.2,0.2-3.4
		c1.3-0.1,2.6-0.1,4-0.2c0-1.5,0.1-2.9,0.1-4.2c1.1,0,2.2,0,3.5,0c0,2.7,0,5.2,0,7.9c-1.1,0.1-2.2,0.2-3.5,0.2
		c-0.1,1.2-0.2,2.4-0.3,3.8c-1.2,0.1-2.4,0.2-3.7,0.3c-0.1,0.6-0.2,1.2-0.2,1.8c0,0.5,0,1,0,1.7c-1.2,0.1-2.3,0.2-3.6,0.3
		c-0.1,1.2-0.2,2.3-0.3,3.8c-1.2,0.1-2.4,0.2-3.8,0.4c-0.1,1.1-0.2,2.2-0.3,3.5c-1.1,0.1-2.3,0.2-3.6,0.3c-0.1,1.2-0.1,2.4-0.2,3.7
		c-1.3,0.1-2.5,0.3-3.9,0.4c-0.1,1.2-0.1,2.2-0.2,3.5c-1.2,0.1-2.3,0.2-3.6,0.3c-0.1,1.2-0.1,2.3-0.2,3.7c-1.3,0.1-2.5,0.3-3.9,0.4
		c-0.1,1.2-0.1,2.3-0.2,3.6c-1.3,0-2.3,0-3.6,0c-0.1,1.4-0.2,2.6-0.3,3.9c-1.3,0.1-2.5,0.2-3.8,0.3c-0.1,1.2-0.2,2.3-0.3,3.6
		c-1.2,0.1-2.3,0.1-3.5,0.2c-0.1,1.3-0.1,2.5-0.2,3.9c-1.2,0.1-2.3,0.2-3.6,0.3c-0.1,1.1-0.2,2.2-0.3,3.5c-1.2,0.1-2.4,0.2-3.8,0.2
		l-0.2,3.6l-3.6,0.1l-0.2,3.9c-1.2,0.1-2.6,0.1-4,0.2c-0.1,1.1-0.2,2.3-0.3,3.6c-1.2,0.1-2.3,0.2-3.5,0.2c-0.1,1.3-0.2,2.5-0.4,3.8
		c-1.3,0.1-2.6,0.1-3.8,0.2l0,3.8l-3.7,0.1l-0.1,3.8c-1.3,0-2.8,0-4.3,0C145.5,150,145.5,148.9,145.5,147.8z M90.4,112
		c1.5-0.1,2.7-0.1,4.1-0.2c0-2.7,0-5.1,0-7.7c1.4-0.1,2.5-0.2,3.8-0.3c0-2.6,0-5.1,0-7.7c1.5-0.1,2.6-0.1,3.9-0.2
		c0.1-1.3,0.1-2.4,0.2-3.6c1.3-0.1,2.3-0.2,3.5-0.2c0.1-1.4,0.2-2.7,0.2-3.9c1.5-0.1,2.7-0.1,3.8-0.2c0.1-1.4,0.2-2.4,0.3-3.6
		c1.3-0.1,2.4-0.2,3.6-0.3c0.1-1.4,0.1-2.6,0.2-4c2.7,0,5.1,0,7.8,0c0-1.4,0-2.5,0-3.6c0,0,1.7,0,2.5,0c7.5,0,17.2,0.1,24.8,0.1
		v-0.8c0-1.2,0-2.2,0-3.4c-10.3,0-20.5,0-30.8,0c-0.1,1.3-0.2,2.5-0.3,3.9c-2.7,0.1-5.1,0.2-7.6,0.3c-0.1,1.3-0.2,2.3-0.2,3.5
		c-1.4,0.1-2.7,0.2-3.8,0.2l-0.6,4c-1.1,0.1-2.1,0.2-3.2,0.2c-0.1,1.2-0.2,2.3-0.3,3.6c-1.4,0-2.6,0-3.9,0c-0.1,1.5-0.2,2.7-0.3,4
		c-1.3,0.1-2.4,0.2-3.4,0.3l-0.5,7.5c-1.4,0.1-2.5,0.2-4,0.4c0,2.6,0,5.1,0,7.6c-1.3,0.1-2.3,0.1-3.6,0.2c0,9,0,17.8,0,26.7
		c1.4,0,2.5,0,3.6,0C90.3,127.4,90.4,119.7,90.4,112z M228.3,175c0-2.7,0-5.2,0-7.8c1.5-0.1,2.7-0.2,4.1-0.2c0-2-0.1-3.9,0-5.8
		l0.2-5.9c1.2-0.1,2.3-0.2,3.4-0.3c0.4-4.9,0.3-13.7-0.2-15.7c-1.1,0-2.2,0-3.4,0c0,2,0.1,4,0,6l-0.3,5.9c-1.3,0.1-2.5,0.1-4,0.2
		c0,3.9,0,7.6,0,11.3c-1.4,0.1-2.5,0.2-3.7,0.3c0,2.6,0,5.1,0,7.7c-3,0-59.5,0.2-59.5,0.2v3.9C165,174.9,225.8,175,228.3,175z
		 M58.9,174.9c21.1,0,41.9,0,62.8,0c0-1.4,0-2.6,0-4.1c-1.3,0-2.4,0-3.5,0c-6.4,0-12.8,0-19.2,0c-13.5,0-27,0-40.5,0
		C58.7,172.2,58.8,173.6,58.9,174.9z M90.3,139.1c0,1.2,0,2.4,0,3.7c1.3,0,2.9,0,4.2,0l0-3.7H90.3z M98.2,147.1c-1.2,0-2.5,0-3.7,0
		v3.7c1.2,0,2.6,0,3.7,0V147.1z"/>
</g>
</svg>
