<?xml version="1.0" encoding="utf-8"?>
<!-- Generator: Adobe Illustrator 21.1.0, SVG Export Plug-In . SVG Version: 6.00 Build 0)  -->
<svg version="1.1" id="Layer_1" xmlns="http://www.w3.org/2000/svg" xmlns:xlink="http://www.w3.org/1999/xlink" x="0px" y="0px"
	 viewBox="0 0 274.5 205.5" style="enable-background:new 0 0 274.5 205.5;" xml:space="preserve">
<style type="text/css">
	.st0{clip-path:url(#SVGID_2_);}
	.st1{fill:#F3F4F3;}
	.st2{fill:#F2F2F3;}
</style>
<g id="Layer_2">
	<g id="Layer_1-2">
		<g>
			<defs>
				<rect id="SVGID_1_" x="-540.2" y="-157.6" width="1366" height="765.4"/>
			</defs>
			<clipPath id="SVGID_2_">
				<use xlink:href="#SVGID_1_"  style="overflow:visible;"/>
			</clipPath>
			<g class="st0">
				<path class="st1" d="M156.3,138.2L121.8,104l45.4-41.3c-14.9-8.5-29.6-10.3-44.7-3.4C91.3,73.4,80,109.5,97.5,139.6
					c5,8.6,11.7,16.3,17.8,24.7H62.5c0.2-2.9,1.2-5.8,0.3-7.7c-1.4-3-3.6-5.5-6.3-7.3c-6.8-3.9-8.3-7.4-5.2-14.3
					c3.9-8.5,3.8-9-2.6-16c-4.5-4.8-4.3-9.1,0.5-13.9c6-6,6.2-7.3,2.6-15c-3.4-7.2-2.5-10.7,4.6-14.5c5.5-3,7.4-6.8,6.3-13
					c-1.4-7.9,1.1-10.9,8.8-12.2c7.5-1.3,9.3-3.1,10.4-10.6c1.4-9.3,4.3-11.8,13.3-10.3c5.9,1,9.8-0.8,12.7-6.1
					c3.8-7,7.3-8.3,14.5-4.7c5.5,2.7,9.7,1.6,13.8-2.5c6.3-6.2,9.6-6.5,16.2-0.7c5.3,4.7,10.2,6.3,16.8,2.2c4.6-2.9,9.9-1,11.6,4.3
					c2.2,6.7,6.8,7.8,12.8,7.6c11.7-0.4,12.7,0.3,14.1,11.6c0.7,5.1,3.5,7.7,8.4,8.6c4.4,0.8,9.2,1.6,9.9,7s0.4,10.6-4.2,15.1
					c-21.4,21.4-42.5,43-63.8,64.6C157.4,137.3,156.7,137.9,156.3,138.2"/>
				<path class="st2" d="M227.8,164.4h-45.8c1.3-2,2.3-3.6,3.4-5.1c5.5-7.6,11-15,16.4-22.7c2.3-3.6,6.4-5.7,10.7-5.5
					c6.1,0,12.2,0.3,18.2-0.4c6.3-0.7,7.9,3.3,9.2,7.8c1.3,4.8-0.9,8.1-5.1,10.3C226.4,153.3,225.8,154.5,227.8,164.4"/>
			</g>
		</g>
	</g>
</g>
</svg>
