<?xml version="1.0" standalone="no"?>
<!DOCTYPE svg PUBLIC "-//W3C//DTD SVG 20010904//EN"
 "http://www.w3.org/TR/2001/REC-SVG-20010904/DTD/svg10.dtd">
<svg version="1.0" xmlns="http://www.w3.org/2000/svg"
 width="688.000000pt" height="688.000000pt" viewBox="0 0 688.000000 688.000000"
 preserveAspectRatio="xMidYMid meet">
<metadata>
Created by potrace 1.11, written by Peter Selinger 2001-2013
</metadata>
<g transform="translate(0.000000,688.000000) scale(0.100000,-0.100000)"
fill="#000000" stroke="none">
<path d="M3245 6574 c-22 -2 -85 -9 -140 -15 -604 -63 -1161 -293 -1645 -677
-127 -102 -377 -353 -479 -481 -554 -699 -781 -1543 -655 -2431 77 -543 306
-1070 656 -1513 106 -133 375 -400 508 -503 463 -359 973 -572 1556 -651 180
-24 608 -24 788 0 583 79 1093 292 1556 651 133 103 402 370 508 503 337 427
558 922 646 1448 68 409 58 835 -30 1217 -108 473 -311 896 -615 1279 -102
128 -352 379 -479 481 -483 383 -1002 598 -1640 679 -88 11 -465 20 -535 13z
m1128 -1322 l2 -302 -547 0 -548 0 0 -440 c0 -242 1 -441 3 -441 1 -1 160 -5
352 -9 311 -7 359 -10 429 -29 110 -29 172 -60 232 -114 102 -92 155 -209 180
-400 20 -151 25 -1685 6 -1842 -39 -313 -119 -419 -357 -472 -118 -26 -766
-26 -935 1 -447 70 -661 224 -747 536 -28 100 -25 434 5 591 49 263 59 294
108 343 82 80 216 136 329 136 50 0 69 -5 106 -28 61 -39 159 -149 194 -218
l30 -59 0 -190 c0 -185 1 -192 27 -247 35 -75 104 -148 177 -187 67 -35 89
-38 137 -15 44 21 130 106 154 154 28 55 42 387 38 910 l-3 415 -100 13 c-123
15 -1112 132 -1121 132 -3 0 -3 37 0 83 4 45 11 183 16 307 6 124 15 317 20
430 23 499 31 658 40 860 5 118 12 254 16 303 l6 87 874 -2 875 -3 2 -303z
m408 -2039 c13 -16 12 -17 -3 -4 -17 13 -22 21 -14 21 2 0 10 -8 17 -17z m40
-30 c13 -16 12 -17 -3 -4 -17 13 -22 21 -14 21 2 0 10 -8 17 -17z"/>
</g>
</svg>
