<?xml version="1.0" encoding="utf-8"?>
<!-- Generator: Adobe Illustrator 21.1.0, SVG Export Plug-In . SVG Version: 6.00 Build 0)  -->
<svg version="1.1" id="Layer_1" xmlns="http://www.w3.org/2000/svg" xmlns:xlink="http://www.w3.org/1999/xlink" x="0px" y="0px"
	 viewBox="0 0 123.2 126" style="enable-background:new 0 0 123.2 126;" xml:space="preserve">
<style type="text/css">
	.st0{clip-path:url(#SVGID_2_);}
	.st1{fill:#4B81BA;}
	.st2{fill:#79B5E1;}
</style>
<g id="Layer_2">
	<g id="Layer_1-2">
		<g>
			<g>
				<defs>
					<rect id="SVGID_1_" x="-88.6" width="287" height="159"/>
				</defs>
				<clipPath id="SVGID_2_">
					<use xlink:href="#SVGID_1_"  style="overflow:visible;"/>
				</clipPath>
				<g class="st0">
					<path class="st1" d="M0.3,42.3V-0.3H-89c-1.4-21.7-6.8-28.2-26.3-31.2C-131-34-137-42-134.6-57.5c2.3-15-0.8-23.2-10.6-28.3
						c-19.6-10.1-20.3-11.4-17.9-32.1v0.3l0.3-3.4l8.8-16.6c1.8-2.4,4-4.7,5.5-7.3c13.8-23.7,27.4-47.4,41.2-71.1
						c25.3-43.8,50.7-87.5,76.1-131.2c8.1-13.9,16.8-27.6,25.2-41.3c4.2,1.4,8.6,2.4,12.5,4.3c8,3.9,15.1,3.1,21.8-2.6
						c3.6-3.1,6.7-7,10.8-9.3c4.6-2.7,10.7-6.6,14.8-5.4c7.9,2.3,15.3,7.3,22,12.3c11.2,8.5,16.7,9.5,29.1,3.1
						c3-1.5,6.1-2.8,9.1-4.3c1.5,2.3,3.2,4.6,4.6,7c14.9,25.6,29.9,51.1,44.8,76.7c22.7,38.9,45.3,77.7,68,116.5
						c10,17.1,20.5,33.9,30.7,50.9l2.1,4.8c0.1,0.6,0.1,1.2,0.2,1.7v-0.2c2,5.7,3.8,11.5,6,17.1c5.1,12.9,0.8,23.5-11.8,28.5
						c-15.7,6.2-19.1,13.2-14.8,30.1C249-37.1,241.1-27.1,220-27c-13.1,0.1-20.8,6.6-21.3,18.3c-0.1,2.8,0.1,5.6,0.2,8.4H123
						c0,5.6,0.1,10.2,0,14.8c-0.3,7.9-5.3,13.6-11.8,13.9c-6.3,0.2-12.5-5.4-12.8-13C98,7.6,96.3,1.3,87.1,1
						C80,0.8,74.9,7.7,74.7,17.1c-0.2,8.4-0.2,16.8-0.3,25.1c-7,6.7-14.5,11.6-24.7,10.3c-0.1-12.6-0.2-25.1-0.4-37.7
						c-0.1-8.5-5-14.2-12-14.3S25.7,6.1,25.5,14.9c-0.2,6.4-0.3,12.8-0.5,19.2L0.3,42.3 M74.6-135c0.6-0.5,1.7-1.3,2.6-2.3
						c31.2-31.7,62.3-63.6,93.9-95c6.7-6.7,7.2-14.2,6.2-22.2s-8.1-9.2-14.5-10.3c-7.2-1.3-11.4-5.2-12.4-12.7
						c-2.1-16.6-3.5-17.8-20.8-17.1c-8.8,0.3-15.5-1.3-18.8-11.2c-2.5-7.7-10.3-10.6-17.1-6.3c-9.7,6.1-16.9,3.8-24.8-3.2
						c-9.6-8.5-14.5-8.1-23.8,1c-6.1,6-12.2,7.6-20.4,3.7c-10.6-5.2-15.7-3.4-21.3,7c-4.2,7.8-10,10.3-18.7,8.9
						c-13.2-2.2-17.5,1.5-19.6,15.1c-1.7,11-4.3,13.6-15.3,15.5c-11.4,2-15,6.4-13,18c1.6,9.1-1.2,14.8-9.3,19.2
						c-10.4,5.6-11.7,10.7-6.7,21.3c5.3,11.3,4.9,13.3-3.9,22.1c-7,7-7.2,13.3-0.7,20.4c9.5,10.2,9.6,11,3.8,23.5
						c-4.7,10.2-2.3,15.4,7.6,21.1c3.9,2.3,7.3,6.6,9.3,10.7c1.3,2.8-0.1,7-0.4,11.3h77.7c-9-12.4-18.8-23.7-26.2-36.4
						c-25.8-44.2-9.1-97.4,36.9-118.3c22.1-10,43.8-7.4,65.7,5.1l-66.8,60.8L74.6-135 M179.9-96.4c-3-14.6-2.2-16.4,10.2-22.9
						c6.1-3.2,9.5-8.1,7.5-15.1c-1.8-6.6-4.1-12.6-13.5-11.5c-8.9,1-17.9,0.5-26.9,0.5c-6.3-0.3-12.2,2.8-15.7,8.1
						c-7.9,11.2-16.1,22.2-24.1,33.3c-1.6,2.3-3.1,4.7-5,7.6H179.9 M-46.8-59.5c-6.6,2.1-9.1,0.4-8.6-5.5c0.4-3,0.3-6.1-0.2-9.2
						c-0.3-1.5-2.4-3.3-4-3.8c-0.8-0.2-3.4,2.1-3.4,3.3c-0.3,13.7-0.3,27.4-0.1,41.1c0,1.3,2.5,3.7,3.3,3.5c1.7-0.5,3.9-2.1,4.2-3.6
						c0.6-4.1-0.2-8.4,0.5-12.5c0.3-1.8,2.6-3.3,4-4.9c1.4,1.6,3.8,3,4.1,4.8c0.7,3.5-0.3,7.3,0.4,10.8c0.4,2.1,2.6,3.8,4,5.6
						c1.3-1.7,3.7-3.4,3.7-5.1c0.3-12.8,0.3-25.7,0-38.5c0-1.6-2.7-3.1-4.1-4.7c-1.3,1.7-3.4,3.3-3.6,5.2
						C-47.2-68.7-46.8-64.2-46.8-59.5 M130.5-30.7c-11.3-15.4-13.1-30.9-1.3-46.5c-13.7-3.6-9.6,9.6-16.4,13.1
						c0-3.6,0.4-6.5-0.1-9.4c-0.3-1.7-2.1-3.1-3.3-4.7c-1.5,1.6-4.1,3.1-4.2,4.7c-0.3,12.9-0.3,25.8,0,38.6c0,1.7,2.5,3.3,3.9,4.9
						c1.2-1.7,3.2-3.4,3.6-5.2c0.6-3.3,0.2-6.8,0.2-10.8C119.8-41.4,115.9-27.7,130.5-30.7 M162.1-30.6c6.6,0,12.4,0.3,18.2-0.2
						c1.7-0.1,4.7-2.3,4.7-3.5c0-6.3-0.7-12.6-1.2-18.9c-0.1-1.4-0.6-2.9-0.5-4.2c0.5-5.1,1.8-10.3,1.7-15.4c0-1.9-2.8-5.2-4.6-5.4
						c-6-0.7-12-0.3-18.3-0.3L162.1-30.6 M64.6-70.2c1.9,8.1,1.9,8.1,7.9,7.3c2.1-14.5,1.3-15.5-13-15.4c-1.1,0-2.2,0-3.4,0
						c-4.8-0.1-7.1,2-7,7.1c0.2,11.5,0,22.9,0.1,34.4c0,1.8,0.8,5.1,1.5,5.2c6.5,0.7,13.3,1.6,19.6,0.5c1.6-0.3,2.2-7.6,2.7-11.8
						c0.1-1.2-2-2.6-3.1-3.9c-1.4,1.3-3.3,2.3-4.1,3.9s-0.5,3.7-0.8,6.1l-8-0.6c0-9.6,0.2-18.5-0.1-27.4
						C56.8-71,59.7-71.9,64.6-70.2 M15.8-29.1l2.3-2.3c-2.7-13.9-5.2-27.9-8.2-41.8c-0.7-2.1-2.4-3.8-4.5-4.6
						c-1.2-0.4-4.4,1.7-4.7,3.1c-3,14.5-5.7,29.2-8.5,43.8l2.5,1.8c1.9-1.7,3.7-3.5,5.6-5.2c1.6-1.5,3.3-4.1,4.9-4s3.2,2.7,4.9,4.2
						C12-32.5,13.9-30.8,15.8-29.1"/>
					<path class="st2" d="M0.3,42.3l24.8-8.2c0.2,26.3,0.5,52.6,0.4,79c0,7.6-5.3,13.2-11.7,12.9c-7.2-0.3-12.3-4.2-13.5-11.5
						c-0.9-5.2-0.7-10.6-0.6-15.9C-0.3,79.9,0,61.1,0.3,42.3"/>
					<path class="st2" d="M49.6,52.5c10.2,1.3,17.8-3.6,24.7-10.3c0.1,7,0.5,13.9,0.3,20.9c-0.2,8.1-4.9,13.3-11.8,13.6
						c-6.6,0.3-12.4-4.9-13.2-12.5C49.2,60.4,49.6,56.4,49.6,52.5"/>
				</g>
			</g>
		</g>
	</g>
</g>
</svg>
