<svg xmlns="http://www.w3.org/2000/svg" width="110.55" height="101" viewBox="0 0 110.55 101">
  <defs>
    <style>
      .cls-1 {
        fill: #fff;
      }
    </style>
  </defs>
  <title>Asset 1</title>
  <g id="Layer_2" data-name="Layer 2">
    <g id="Layer_1-2" data-name="Layer 1">
      <path class="cls-1" d="M110.55,81.23v5.3c-.05.29-.12.57-.16.86a25.27,25.27,0,0,1-1.79,7.42c-1.54,3.38-4,5.61-7.81,5.85a16.9,16.9,0,0,1-10.32-3c-3.23-2.08-6.28-4.44-9.36-6.75-4.18-3.15-8.23-6.44-12.93-8.83A27.92,27.92,0,0,0,50.72,79.3,26.43,26.43,0,0,0,38,84.8c-3.49,2.82-6.74,5.94-10.08,8.94-4.15,3.73-8.71,6.58-14.42,7.17-4.22.44-7.64-.79-10-4.44A17.88,17.88,0,0,1,.89,89.87C.52,87.94.29,86,0,84V78.22c.18-1.66.36-3.33.53-5A85.65,85.65,0,0,1,4.05,56.6,82,82,0,0,1,10.59,41,49.14,49.14,0,0,1,20.72,27.68c3.53-3.12,7.48-5.4,12.28-5.86a5.71,5.71,0,0,1,2.58.16A78.19,78.19,0,0,0,49,26.52c1.33.28,2.69.44,4.12.66,0-.44,0-.73,0-1a21.3,21.3,0,0,1,1.08-8c1.29-3.56,3.57-6.15,7.35-7.1,1.79-.45,3.63-.71,5.46-1,4.41-.72,8.83-1.41,13-3.19A12,12,0,0,0,86.1,1.76c.31-.55.54-1.15.82-1.76l3.53,1.12a13,13,0,0,1-4.52,6.63c-3.56,2.83-7.81,4-12.14,4.93-3.33.71-6.72,1.21-10.08,1.74a6.77,6.77,0,0,0-5.23,3.47C56.88,20.8,56.83,24,57,27.36c1.82-.21,3.55-.31,5.24-.61a51.85,51.85,0,0,0,13.2-4.6,3,3,0,0,1,1.26-.27,15.32,15.32,0,0,1,8.61,3,37.7,37.7,0,0,1,9.82,10.61,79.61,79.61,0,0,1,6.48,11.91,111.28,111.28,0,0,1,5.18,14.14,93.74,93.74,0,0,1,3.17,14.64c.21,1.69.4,3.38.6,5.07M24.5,47.3A10.33,10.33,0,1,0,34.83,37,10.37,10.37,0,0,0,24.5,47.3m60.16,4.1a4.83,4.83,0,1,0,.11-9.65,4.81,4.81,0,0,0-4.88,4.75,4.9,4.9,0,0,0,4.76,4.9M65.2,45.14A4.92,4.92,0,0,0,70,50a4.86,4.86,0,0,0,4.9-4.85,4.86,4.86,0,1,0-9.72,0m18-8.66a4.91,4.91,0,0,0-4.88-4.88,4.79,4.79,0,0,0-4.81,4.81,4.87,4.87,0,0,0,4.84,4.9,5,5,0,0,0,4.85-4.83M71.63,55.25a4.87,4.87,0,0,0,4.76,4.88,4.93,4.93,0,0,0,4.94-4.83,4.81,4.81,0,0,0-4.89-4.83,4.7,4.7,0,0,0-4.81,4.77"/>
    </g>
  </g>
</svg>
