<?xml version="1.0" encoding="utf-8"?>
<!-- Generator: Adobe Illustrator 21.1.0, SVG Export Plug-In . SVG Version: 6.00 Build 0)  -->
<svg version="1.1" id="Layer_1" xmlns="http://www.w3.org/2000/svg" xmlns:xlink="http://www.w3.org/1999/xlink" x="0px" y="0px"
	 viewBox="0 0 42.6 41.3" style="enable-background:new 0 0 42.6 41.3;" xml:space="preserve">
<style type="text/css">
	.st0{clip-path:url(#SVGID_2_);}
	.st1{fill:#4C81B9;}
	.st2{fill:#79B4E0;}
	.st3{fill:#395098;}
	.st4{fill:#FFFFFF;}
	.st5{fill:#F2F2F1;}
	.st6{fill:#EFF0F0;}
	.st7{fill:#E0E1E2;}
	.st8{fill:#E3E3E3;}
	.st9{fill:#E8E8E8;}
	.st10{fill:#EEEEED;}
	.st11{fill:#60A0D2;}
</style>
<g id="Layer_2">
	<g id="Layer_1-2">
		<g>
			<defs>
				<path id="SVGID_1_" d="M1.8,20.7c0,10.8,8.7,19.5,19.5,19.5s19.5-8.7,19.5-19.5S32.1,1.2,21.3,1.2S1.8,9.9,1.8,20.7"/>
			</defs>
			<clipPath id="SVGID_2_">
				<use xlink:href="#SVGID_1_"  style="overflow:visible;"/>
			</clipPath>
			<g class="st0">
				<path class="st1" d="M3.5,191.7v-14.3h-30c-0.5-7.3-2.3-9.5-8.8-10.5c-5.3-0.8-7.3-3.5-6.5-8.7c0.8-5.1-0.3-7.8-3.6-9.5
					c-6.6-3.4-6.8-3.8-6-10.8v0.1l0.1-1.1l2.9-5.6c0.7-0.8,1.3-1.6,1.9-2.4c4.6-8,9.2-15.9,13.8-23.9c8.5-14.7,17-29.4,25.6-44.1
					c2.7-4.7,5.7-9.3,8.5-13.9c1.4,0.4,2.8,0.9,4.2,1.4c2.4,1.4,5.3,1,7.3-0.9c1.1-1.1,2.3-2.2,3.6-3.1c1.6-0.9,3.6-2.2,5-1.8
					c2.7,0.9,5.2,2.3,7.4,4.1c3.8,2.8,5.6,3.2,9.8,1c1-0.5,2-1,3.1-1.4c0.5,0.8,1.1,1.5,1.6,2.3c5,8.6,10,17.2,15,25.8
					c7.6,13.1,15.2,26.1,22.8,39.2c3.4,5.7,6.9,11.4,10.3,17.1l0.7,1.6l0.1,0.6v-0.1c0.7,1.9,1.3,3.9,2,5.8c1.7,4.3,0.3,7.9-4,9.6
					c-5.3,2.1-6.4,4.4-5,10.1c1.7,6.8-1,10.2-8,10.2c-4.4,0-7,2.2-7.1,6.2c0,0.9,0,1.9,0.1,2.8H44.8c0,1.9,0,3.4,0,5
					c-0.1,2.7-1.8,4.6-4,4.7c-2.3-0.1-4.2-2-4.3-4.3c-0.1-2.6-0.7-4.8-3.8-4.9c-2.4-0.1-4.1,2.2-4.2,5.4c-0.1,2.8-0.1,5.6-0.1,8.4
					c-2.3,2.2-4.9,3.9-8.3,3.4c0-4.2-0.1-8.4-0.1-12.7c0-2.9-1.7-4.8-4-4.8s-3.9,1.9-4,4.8c-0.1,2.2-0.1,4.3-0.2,6.5L3.5,191.7
					 M28.5,132.1c0.2-0.2,0.6-0.4,0.9-0.8c10.5-10.7,20.9-21.4,31.5-31.9c2.3-2.2,2.4-4.8,2.1-7.5s-2.7-3.1-4.9-3.5
					c-2.3-0.2-4-2-4.2-4.3c-0.7-5.6-1.2-6-7-5.8c-2.9,0.1-5.2-0.4-6.3-3.8c-0.5-2-2.6-3.2-4.6-2.7c-0.4,0.1-0.8,0.3-1.2,0.5
					c-3.3,2-5.7,1.3-8.3-1.1c-3.2-2.9-4.9-2.7-8,0.3c-2.1,2-4.1,2.6-6.8,1.2c-3.6-1.7-5.3-1.1-7.2,2.3c-1.4,2.6-3.4,3.5-6.3,3
					c-4.4-0.7-5.9,0.5-6.6,5.1c-0.6,3.7-1.4,4.6-5.2,5.2s-5,2.2-4.3,6.1c0.5,3.1-0.4,5-3.1,6.4c-3.5,1.9-3.9,3.6-2.3,7.2
					c1.8,3.8,1.7,4.5-1.3,7.4c-2.4,2.4-2.4,4.5-0.2,6.9c3.2,3.4,3.2,3.7,1.3,7.9c-1.6,3.4-0.8,5.2,2.6,7.1c1.4,0.9,2.4,2.1,3.1,3.6
					c0.5,0.9,0,2.4-0.1,3.8H8.2c-3-4.1-6.3-8-8.8-12.2c-8.7-14.9-3.1-32.7,12.4-39.8c7.4-3.4,14.7-2.5,22.1,1.7l-22.5,20.4
					L28.5,132.1 M63.9,145.1c-1-4.9-0.7-5.5,3.4-7.7c2.1-1.1,3.2-2.7,2.5-5.1s-1.4-4.2-4.5-3.9c-3,0.2-6,0.3-9,0.2
					c-2.1-0.1-4.1,0.9-5.3,2.7c-2.7,3.8-5.4,7.5-8.1,11.2c-0.6,0.8-1,1.6-1.7,2.5L63.9,145.1z M-12.3,157.4
					c-2.2,0.7-3.1,0.1-2.9-1.8c0.1-1,0.1-2.1-0.1-3.1c-0.2-0.6-0.7-1.1-1.3-1.3c-0.3-0.1-1.2,0.7-1.2,1.1c-0.1,4.6-0.1,9.2,0,13.8
					c0,0.4,0.8,1.2,1.1,1.2c0.5-0.2,1.3-0.7,1.4-1.2c0.2-1.4-0.1-2.8,0.2-4.2c0.1-0.6,0.9-1.1,1.3-1.6c0.5,0.5,1.3,1,1.4,1.6
					c0.2,1.2-0.1,2.5,0.1,3.6c0.1,0.7,0.9,1.3,1.3,1.9c0.4-0.6,1.2-1.1,1.2-1.7c0.1-4.3,0.1-8.6,0-13c0-0.5-0.9-1-1.4-1.6
					c-0.4,0.6-1.2,1.1-1.2,1.7C-12.4,154.4-12.4,155.9-12.3,157.4 M47.2,167.1c-3.8-5.2-4.4-10.4-0.4-15.6c-4.6-1.2-3.2,3.2-5.5,4.4
					c0.1-1,0.1-2.1,0-3.1c-0.1-0.6-0.7-1-1.1-1.6c-0.5,0.5-1.4,1-1.4,1.6c-0.1,4.3-0.1,8.7,0,13c0,0.6,0.8,1.1,1.3,1.6
					c0.4-0.6,1.1-1.1,1.2-1.8c0.1-1.2,0.1-2.4,0.1-3.6C43.7,163.5,42.4,168.1,47.2,167.1 M57.9,167.1c2.2,0,4.2,0.1,6.1-0.1
					c0.6,0,1.6-0.8,1.6-1.2c0-2.1-0.2-4.2-0.4-6.3c-0.1-0.5-0.1-0.9-0.2-1.4c0.3-1.7,0.5-3.4,0.6-5.2c-0.2-0.8-0.7-1.5-1.5-1.8
					c-2-0.1-4.1-0.2-6.2-0.1V167.1z M25.1,153.9c0.6,2.7,0.6,2.7,2.7,2.5c0.7-4.9,0.4-5.2-4.4-5.2h-1.1c-1.6,0-2.4,0.7-2.4,2.4
					c0.1,3.9,0,7.7,0,11.6c0,0.6,0.3,1.7,0.5,1.8c2.2,0.4,4.4,0.4,6.6,0.2c0.5-0.1,0.8-2.6,0.9-4c0-0.4-0.7-0.9-1-1.3
					c-0.5,0.4-1.1,0.8-1.4,1.3c-0.2,0.7-0.3,1.4-0.3,2.1l-2.7-0.2c0-3.2,0.1-6.2,0-9.2C22.5,153.6,23.5,153.3,25.1,153.9 M8.7,167.7
					l0.8-0.8c-0.9-4.7-1.8-9.4-2.8-14c-0.2-0.7-0.8-1.3-1.5-1.5c-0.7,0-1.3,0.4-1.6,1c-1,4.9-1.9,9.8-2.9,14.7l0.8,0.6
					c0.6-0.6,1.3-1.2,1.9-1.8s1.1-1.4,1.7-1.4s1.1,0.9,1.6,1.4S8.1,167.1,8.7,167.7"/>
				<path class="st2" d="M70.2,177.4c0-0.9-0.1-1.9-0.1-2.8c0.1-3.9,2.7-6.1,7.1-6.2c7.1,0,9.8-3.4,8-10.2c-1.4-5.7-0.3-8,5-10.1
					c4.2-1.7,5.7-5.2,4-9.6c-0.8-1.9-1.4-3.8-2-5.8c0.6,0.8,1.3,1.6,1.8,2.4c3,5.1,6,10.1,9,15.2l1.3,1.8c3.3,5.9,6.7,11.8,10,17.6
					c1.3,2.4,2.7,4.7,4.4,7.6L70.2,177.4z"/>
				<path class="st2" d="M-51.4,137.8c-0.8,7-0.5,7.4,6,10.8c3.3,1.7,4.3,4.4,3.6,9.5c-0.8,5.2,1.2,7.9,6.5,8.7
					c6.5,1,8.3,3.2,8.8,10.5l-47.1,0.1c-0.3-0.1-0.6-0.2-1-0.4l13.6-23.8l1.3-2.1c1.3-2.1,2.5-4.3,3.9-6.4
					C-54.4,142.3-52.9,140.1-51.4,137.8"/>
				<path class="st2" d="M41.8,46.3c-1,0.5-2.1,0.9-3.1,1.4c-4.2,2.2-6,1.8-9.8-1c-2.2-1.8-4.7-3.2-7.4-4.1c-1.4-0.4-3.4,0.9-5,1.8
					c-1.3,0.9-2.5,2-3.6,3.1c-2,1.9-5,2.2-7.3,0.9c-1.3-0.6-2.7-1.1-4.1-1.5l-0.3-0.6l3.7-6.7l1-2.2c1.5-1,1.5-2,0.3-3.4
					c-2.9-3.6-4.9-7.6-4.8-12.4C2.7,22,4,22.5,5.3,23c2.8,1.5,6.3,1,8.6-1.4c0.5-0.5,1.2-0.9,1.7-1.4l7.6,1c0,2.7,0.1,5.3-0.1,7.9
					c0,0.5-1.1,1.5-1.5,1.4c-0.8-0.2-1.4-0.8-1.7-1.5c-0.3-0.9,0.2-2-0.2-2.8s-1.2-1.7-1.8-1.7c-0.9,0-2.3,0.7-2.4,1.4
					c-1.6,6.4,0.3,8.7,6.7,8.7h1.4c3.2,0,3.9-0.7,4-4s0-6.4,0-9.6c0.6,0.2,1.2,0.5,1.7,0.8c3,2.6,6.2,2.8,9.5,0.7
					c0.9-0.4,1.9-0.7,2.9-0.9c-0.3,4.4-1.4,8.5-4.3,11.9c-1.6,1.7-1.5,3,0,4.5l1.2,1.6l3.3,6.2C41.8,46,41.8,46.2,41.8,46.3"/>
				<path class="st3" d="M15.6,20.3c-0.6,0.5-1.2,0.9-1.7,1.4C11.6,24,8.1,24.6,5.3,23c-1.3-0.5-2.6-1-3.9-1.4
					C1,10.5,9.6,1.1,20.8,0.7s20.5,8.3,21,19.4c0,0.5,0,1,0,1.6c-1,0.2-1.9,0.4-2.8,0.9c-3.4,2.1-6.5,1.9-9.5-0.7
					c-0.5-0.3-1.1-0.6-1.7-0.8c-0.1-5.4-4.3-4-7.5-4.3v-5.5h6.8V7.5H16.2C16,11.9,15.8,16.1,15.6,20.3"/>
				<path class="st4" d="M5.9,37.5l-1,2.2c-1.6-0.7-3.3-1.4-4.9-2.2c-4.7-2.2-7.8-1.3-10.3,3.2c-3.7,6.6-5.7,7.5-13.3,6.3
					c-6.5-1-9.6,1.2-10.4,7.4c-1,8.4-3.2,10.3-11.7,11.1c-3.6,0.1-6.4,3.1-6.3,6.7c0,0.1,0,0.2,0,0.3c0,1.4,0.2,2.8,0.4,4.2
					c0.8,4.5-0.9,7.9-4.9,10.1c-1.2,0.6-2.3,1.3-3.4,1.9c-3.2,1.6-4.5,5.5-3,8.7c0.4,1,0.9,1.9,1.3,2.8c2.7,6,2,9.1-3,13.3
					c-2.2,1.8-4,4.1-3.1,7c0.6,1.8,1.6,3.5,3,4.9c4.8,5.1,5.3,7.5,2.1,13.8c-0.3,0.7-0.7,1.3-1,2c-2.4,4.3-0.8,8.1,3.9,9.8l-1.3,2.1
					c-6-3.4-7.2-7.5-4.1-13.6l0.2-0.5c3.3-6.4,3.1-7.8-1.9-12.9c-0.7-0.6-1.3-1.3-1.9-2.1c-2.1-3.2-1.7-7.4,0.9-10.2c1-1,2-2,3-3
					c2.9-2.8,3.3-5.1,1.7-8.9c-1.1-2.4-1.9-5-2.4-7.7c-0.5-3.4,1.5-5.9,4.4-7.6c0.7-0.4,1.5-0.8,2.3-1.2c4.9-2.5,5.9-4.7,5-10
					c-1.3-7.7,1.6-11.5,9.5-12.3c5.1-0.5,6.9-2.2,7.8-7.2c0.1-0.7,0.3-1.3,0.4-1.9c1.4-7.9,5-10.4,12.8-9.1c6,1,7.7,0.3,10.9-5.1
					c3.8-6.4,7.4-7.4,14.1-4.2C3,36.5,4.5,37,5.9,37.5"/>
				<path class="st4" d="M38.6,39.7L37.4,38c1.5-0.6,3-1,4.4-1.7c5.8-2.9,10.8-1.1,13.2,5c2,5.1,2.1,5.2,7.6,5.2c2.3,0,4.5,0,6.8,0
					c4.6-0.1,8.5,3.5,8.8,8.1c0.1,0.3,0.1,0.7,0.1,1.1c-0.3,6.5,3,9.3,9.2,10.3s8.5,5.5,7,11.5c-1.4,5.6-0.6,7.2,4.3,10.2
					c0.6,0.4,1.3,0.8,2,1.1c5.3,2.6,6.8,7.6,3.8,12.8c-0.5,0.8-1,1.6-1.4,2.4c-2,3.4-1.7,6,1.1,8.9c1,1,2,2,3,3
					c3.9,4.3,3.5,10-0.9,13.7c-4.4,3.7-4.8,6.1-2.6,11.3c1,2.6,1.7,5.3,2.1,8c0.1,0.9-0.9,2.1-1.4,3.1l-1.3-1.8
					c0.1-1.6,0.7-3.2,0.3-4.7c-0.5-2.1-1.7-4-2.5-6c-1.4-3.6-1-6.8,1.8-9.6c7-7.2,7-7.9,0.1-15.3c-3.7-4.1-4.1-7.6-1.2-12.3
					c0.6-0.9,1.1-1.8,1.6-2.7c1.9-4.1,0.9-7-3.2-9.1l-2.6-1.2c-5.2-2.7-6.7-6.3-5.1-11.9c1.5-5.2-0.6-8.6-6-9.7
					c-1.1-0.2-2.2-0.4-3.3-0.7c-4-1-6.7-4.6-6.6-8.7c0-6.8-2.2-10.4-10.1-9.7c-0.6,0.1-1.3-0.1-2,0c-5.9,0.8-9.8-1.3-11.8-7.3
					c-1.6-4.8-5.6-5.6-10.1-3.1C41.2,38.8,39.9,39.3,38.6,39.7"/>
				<path class="st2" d="M3.5,191.7l8.3-2.8c0.1,8.8,0.2,17.7,0.1,26.5c0,2.6-1.8,4.4-3.9,4.3c-2.3,0.1-4.2-1.6-4.5-3.8
					c-0.2-1.8-0.3-3.6-0.2-5.4C3.3,204.3,3.4,198,3.5,191.7"/>
				<path class="st2" d="M20.1,195.1c3.4,0.4,6-1.2,8.3-3.4c0,2.3,0.2,4.7,0.1,7c-0.1,2.7-1.7,4.5-4,4.6c-2.4,0-4.3-1.8-4.4-4.2
					C20,197.7,20,196.4,20.1,195.1"/>
				<path class="st5" d="M28.5,132.1l-17-16.9l22.5-20.4c-7.4-4.2-14.7-5.1-22.1-1.7c-15.5,7-21.1,24.9-12.4,39.8
					c2.5,4.3,5.8,8.1,8.8,12.2h-26.1c0.1-1.4,0.6-2.8,0.1-3.8c-0.7-1.5-1.8-2.7-3.1-3.6c-3.3-1.9-4.1-3.7-2.6-7.1
					c1.9-4.2,1.9-4.5-1.3-7.9c-2.2-2.4-2.1-4.5,0.2-6.9c3-3,3.1-3.6,1.3-7.4c-1.7-3.6-1.2-5.3,2.3-7.2c2.7-1.5,3.7-3.4,3.1-6.4
					c-0.7-3.9,0.5-5.4,4.3-6.1c3.8-0.7,4.6-1.5,5.1-5.2c0.7-4.6,2.1-5.8,6.6-5.1c2.9,0.5,4.9-0.4,6.3-3c1.9-3.5,3.6-4.1,7.2-2.3
					c2.7,1.3,4.8,0.8,6.8-1.2c3.1-3.1,4.8-3.2,8-0.3c2.6,2.3,5.1,3.1,8.3,1.1c1.7-1.2,4-0.7,5.2,1c0.2,0.3,0.4,0.7,0.5,1.1
					c1.1,3.3,3.4,3.9,6.3,3.8c5.8-0.2,6.3,0.2,7,5.8c0.1,2.3,1.9,4.1,4.2,4.3c2.2,0.4,4.6,0.8,4.9,3.5s0.2,5.2-2.1,7.5
					c-10.6,10.6-21,21.3-31.5,31.9C29.1,131.7,28.7,131.9,28.5,132.1"/>
				<path class="st3" d="M-48.3,131.2c-1.2-1.9-2.2-3.9-3.6-5.5c-4.2-4.4-4.2-7.6,0.1-11.8c4-3.8,4.2-5.3,2-10.4
					c-0.7-1.7-1.8-3.5-1.8-5.2c0-2.9,1.7-5,4.3-6.4c5.9-3.2,6.6-4.8,5.4-11.3c-0.8-4.4,1.1-7.2,5.5-8.2c0.9-0.2,1.8-0.3,2.8-0.5
					c4-0.6,6-2.6,6.6-6.6c0.2-1.2,0.4-2.4,0.6-3.6c0.8-4.5,3.8-6.7,8.3-5.9c7,1.2,8.4,0.6,11.9-5.5c1.4-2.8,4.4-4.3,7.5-3.8l0.3,0.6
					c-2.8,4.6-5.8,9.2-8.5,13.9c-8.6,14.7-17.1,29.4-25.6,44.1c-4.6,8-9.2,15.9-13.8,23.9C-47.1,129.6-47.7,130.5-48.3,131.2"/>
				<path class="st3" d="M41.8,46.3c0-0.1,0-0.3,0.1-0.4c4.6,0,6.4,1.2,8,5.6c1.2,3.3,3.4,4.5,6.6,4.5c2.4,0,4.7-0.1,7,0
					c3.1-0.1,5.7,2.1,6.1,5.1c0.3,1.4,0.4,2.8,0.5,4.2c0.1,2.7,1.9,5.1,4.5,5.9c1.4,0.5,2.9,0.7,4.4,1.1c4.4,1.2,6.1,4,5.2,8.5
					c-1.1,6.1-0.5,7.4,5,10.3s6.4,6.2,3.2,11.5c-2.4,4.1-2.1,6.7,1.2,10.1c0.6,0.6,1.2,1.2,1.8,1.8c3.4,3.5,3.2,7.1-0.1,10.6
					c-1.4,1.8-2.8,3.7-3.9,5.7c-3.4-5.7-6.9-11.4-10.3-17.1c-7.6-13.1-15.2-26.1-22.7-39.2c-5-8.6-10-17.2-15-25.8
					C42.9,47.8,42.4,47.1,41.8,46.3"/>
				<path class="st6" d="M63.9,145.1H41.2c0.6-1,1.1-1.8,1.7-2.5c2.7-3.7,5.4-7.4,8.1-11.2c1.2-1.8,3.2-2.8,5.3-2.7
					c3,0.1,6,0.1,9-0.2c3.1-0.3,3.9,1.6,4.5,3.9s-0.5,4-2.5,5.1C63.1,139.6,62.8,140.2,63.9,145.1"/>
				<path class="st7" d="M-12.3,157.4c-0.1-1.5-0.1-3,0.1-4.6c0.1-0.6,0.8-1.2,1.2-1.7c0.5,0.5,1.4,1,1.4,1.6c0.1,4.3,0.1,8.6,0,13
					c0,0.6-0.8,1.1-1.2,1.7c-0.5-0.6-1.2-1.2-1.3-1.9c-0.2-1.2,0.1-2.5-0.1-3.6c-0.1-0.6-0.9-1.1-1.4-1.6c-0.5,0.5-1.3,1-1.3,1.6
					c-0.2,1.4,0,2.8-0.2,4.2c-0.1,0.5-0.8,1-1.4,1.2c-0.2,0.1-1.1-0.8-1.1-1.2c-0.1-4.6-0.1-9.2,0-13.8c0-0.4,0.9-1.2,1.2-1.1
					c0.6,0.2,1.1,0.7,1.3,1.3c0.2,1,0.2,2.1,0.1,3.1C-15.4,157.6-14.5,158.2-12.3,157.4"/>
				<path class="st8" d="M47.3,167.1c-4.9,1-3.6-3.6-5.9-5.1c0.1,1.2,0.1,2.4-0.1,3.6c-0.1,0.6-0.8,1.2-1.2,1.8
					c-0.5-0.6-1.3-1.1-1.3-1.6c-0.1-4.3-0.1-8.7,0-13c0-0.5,0.9-1,1.4-1.6c0.4,0.5,1,1,1.1,1.6c0.1,1,0.1,2.1,0.1,3.1
					c2.3-1.2,0.9-5.6,5.5-4.4C42.8,156.8,43.5,162,47.3,167.1"/>
				<path class="st9" d="M57.9,167.1V151c2.1-0.1,4.1-0.1,6.2,0.1c0.8,0.3,1.4,1,1.5,1.8c-0.1,1.7-0.3,3.5-0.6,5.2
					c0,0.5,0.1,1,0.2,1.4c0.2,2.1,0.4,4.2,0.4,6.3c0,0.4-1,1.1-1.6,1.2C62,167.2,60.1,167.1,57.9,167.1 M63.2,164.9
					c0.4-5.1,0.2-5.4-2.8-4.9v5L63.2,164.9 M60.3,157.7c3.1,0,3.3-0.3,2.7-4.3h-2.7V157.7z"/>
				<path class="st8" d="M25.1,153.9c-1.7-0.6-2.7-0.3-2.6,1.8c0.1,3,0,6,0,9.2l2.7,0.2c0-0.7,0.1-1.4,0.3-2
					c0.3-0.5,0.9-0.9,1.4-1.3c0.4,0.4,1.1,0.9,1,1.3c-0.2,1.4-0.4,3.9-0.9,4c-2.2,0.2-4.4,0.2-6.6-0.2c-0.2,0-0.5-1.1-0.5-1.8
					c0-3.9,0-7.7,0-11.6c0-1.7,0.8-2.4,2.4-2.4h1.2c4.8,0,5.1,0.3,4.4,5.2C25.8,156.7,25.8,156.7,25.1,153.9"/>
				<path class="st9" d="M8.7,167.7c-0.6-0.6-1.3-1.1-1.9-1.7s-1.1-1.4-1.6-1.4s-1.1,0.9-1.7,1.4s-1.3,1.2-1.9,1.8l-0.8-0.6
					c0.9-4.9,1.8-9.8,2.9-14.7c0.3-0.6,0.9-1,1.6-1c0.7,0.3,1.3,0.8,1.5,1.5c1,4.7,1.8,9.4,2.8,14L8.7,167.7 M5.5,157.4H4.8
					c-0.3,1.3-0.5,2.5-0.6,3.8c0,0.3,0.6,0.7,1,1c0.3-0.4,1-0.7,1-1C6,159.9,5.8,158.7,5.5,157.4"/>
				<path class="st2" d="M92.2,132.3l0.1,0.6L92.2,132.3"/>
				<path class="st10" d="M15.6,20.3c0.2-4.2,0.4-8.4,0.6-12.8h10.9v3.8h-6.8v5.4c3.2,0.3,7.4-1.1,7.5,4.3c0,3.2,0.1,6.4,0,9.6
					s-0.8,4-4,4h-1.5c-6.4,0-8.2-2.3-6.7-8.7c0.2-0.7,1.6-1.4,2.4-1.4c0.6,0,1.5,1,1.8,1.7s-0.1,1.9,0.2,2.8
					c0.3,0.7,0.9,1.3,1.7,1.5c0.4,0.1,1.5-0.8,1.5-1.4c0.2-2.6,0.1-5.2,0.1-7.9L15.6,20.3"/>
				<path class="st1" d="M63.2,164.9l-2.8,0.1v-5C63.4,159.5,63.6,159.8,63.2,164.9"/>
				<path class="st1" d="M60.3,157.7v-4.3H63C63.6,157.4,63.4,157.6,60.3,157.7"/>
				<path class="st11" d="M5.5,157.4c0.3,1.2,0.5,2.5,0.6,3.8c0,0.3-0.6,0.7-1,1c-0.3-0.4-1-0.7-1-1c0.1-1.3,0.3-2.6,0.6-3.8
					L5.5,157.4"/>
			</g>
		</g>
	</g>
</g>
</svg>
