<svg id="a25bca25-3c42-4fac-9030-b69fbaa4882c" data-name="Capa 1" xmlns="http://www.w3.org/2000/svg" viewBox="0 0 512 448">
    <defs>
        <style>.b6ab6e35-d603-43ff-9d72-e5669a749298{
            fill:#fff;}
        </style>
    </defs>
    <title>auto</title>
    <polygon class="b6ab6e35-d603-43ff-9d72-e5669a749298" points="440.89 378 426.67 378 412.44 378 398.22 378 398.22 392 398.22 406 398.22 420 398.22 434 412.44 434 412.44 448 426.67 448 440.89 448 455.11 448 455.11 434 469.33 434 469.33 420 469.33 406 469.33 392 469.33 378 455.11 378 440.89 378"/>
    <polygon class="b6ab6e35-d603-43ff-9d72-e5669a749298" points="85.33 378 71.11 378 56.89 378 42.67 378 42.67 392 42.67 406 42.67 420 42.67 434 56.89 434 56.89 448 71.11 448 85.33 448 99.56 448 99.56 434 113.78 434 113.78 420 113.78 406 113.78 392 113.78 378 99.56 378 85.33 378"/>
    <path class="b6ab6e35-d603-43ff-9d72-e5669a749298" d="M497.78,214V200H483.56V186H469.33V172H455.11V130H440.89V102H426.67V60H412.44V46H398.22V32H113.78V46H99.56V60H85.33v42H71.11v28H56.89v42H42.67v14H14.22v28H0V368H28.44v14H483.56V368H512V214ZM128,256v28H99.56v14H71.11V284H56.89V242H71.11V228h42.67v14H128Zm241.78-70H128V172H113.78V130H128V102h14.22V88H369.78v14H384v28h14.22v42H384v14Zm85.33,70v28H440.89v14H398.22V284H384V242h14.22V228h42.67v14h14.22Z" transform="translate(0 -32)"/>
</svg>
