<svg id="f3046cad-ce25-430f-95e6-e21b41a18ecf" data-name="Capa 1" xmlns="http://www.w3.org/2000/svg" viewBox="0 0 510 443">
    <defs>
        <style>.ea6994d0-fc4e-43cb-8f64-606eec0c4439{
            fill:#FFF; }
        </style>
    </defs>
    <title>fiets</title>
    <path class="ea6994d0-fc4e-43cb-8f64-606eec0c4439" d="M156.83,462.71H171V448.42h14.17V434.13h14.16V405.55H213.5V334.1H199.33V305.52H185.17V291.23H171V276.94H142.67V262.65H71.83v14.29H43.5v14.29H29.33v14.29H15.17V334.1H1v71.45H15.17v28.58H29.33v14.29H43.5v14.29H71.83V477h70.84V462.71Zm-85-28.58H57.67V419.84H43.5V391.26H29.33V348.39H43.5V319.81H57.67V305.52H86V291.23h42.5v14.29h28.33v14.29H171v28.58h14.17v42.87H171v28.58H156.83v14.29H128.5v14.29H86V434.13Z" transform="translate(-1 -34)"/>
    <path class="ea6994d0-fc4e-43cb-8f64-606eec0c4439" d="M496.83,319.81V305.52H482.67V291.23H468.5V276.94H440.17V262.65H369.33v14.29H341v14.29H326.83v14.29H312.67V334.1H298.5v71.45h14.17v28.58h14.16v14.29H341v14.29h28.33V477h70.84V462.71H468.5V448.42h14.17V434.13h14.16V405.55H511V334.1H496.83ZM468.5,334.1v14.29h14.17v42.87H468.5v28.58H454.33v14.29H426v14.29H383.5V434.13H355.17V419.84H341V391.26H326.83V348.39H341V319.81h14.17V305.52H383.5V291.23H426v14.29h28.33v14.29H468.5Z" transform="translate(-1 -34)"/>
    <polygon class="ea6994d0-fc4e-43cb-8f64-606eec0c4439" points="255 200.06 240.83 200.06 240.83 185.77 226.67 185.77 226.67 171.48 240.83 171.48 240.83 157.19 255 157.19 255 142.9 269.17 142.9 269.17 128.61 283.33 128.61 283.33 142.9 283.33 157.19 297.5 157.19 297.5 171.48 311.67 171.48 311.67 185.77 325.83 185.77 340 185.77 354.17 185.77 368.33 185.77 382.5 185.77 396.67 185.77 396.67 171.48 396.67 157.19 382.5 157.19 368.33 157.19 354.17 157.19 340 157.19 340 142.9 325.83 142.9 325.83 128.61 311.67 128.61 311.67 114.32 311.67 100.03 297.5 100.03 297.5 85.74 297.5 71.45 283.33 71.45 283.33 57.16 269.17 57.16 255 57.16 255 71.45 240.83 71.45 226.67 71.45 226.67 85.74 212.5 85.74 212.5 100.03 198.33 100.03 198.33 114.32 184.17 114.32 184.17 128.61 170 128.61 170 142.9 155.83 142.9 155.83 157.19 155.83 171.48 155.83 185.77 155.83 200.06 170 200.06 170 214.35 184.17 214.35 184.17 228.65 198.33 228.65 212.5 228.65 212.5 242.94 226.67 242.94 240.83 242.94 240.83 257.23 240.83 271.52 240.83 285.81 240.83 300.1 240.83 314.39 240.83 328.68 240.83 342.97 240.83 357.26 255 357.26 269.17 357.26 269.17 342.97 269.17 328.68 269.17 314.39 269.17 300.1 269.17 285.81 269.17 271.52 269.17 257.23 269.17 242.94 269.17 228.65 269.17 214.35 255 214.35 255 200.06"/>
    <polygon class="ea6994d0-fc4e-43cb-8f64-606eec0c4439" points="311.67 28.58 297.5 28.58 297.5 42.87 297.5 57.16 311.67 57.16 311.67 71.45 325.83 71.45 340 71.45 354.17 71.45 368.33 71.45 368.33 57.16 382.5 57.16 382.5 42.87 382.5 28.58 368.33 28.58 368.33 14.29 368.33 0 354.17 0 340 0 325.83 0 311.67 0 311.67 14.29 311.67 28.58"/>
</svg>
