<svg id="a7881b75-549b-4756-b79e-b949b4b24a00" data-name="Capa 1" xmlns="http://www.w3.org/2000/svg" viewBox="0 0 406 512">
    <defs>
        <style>.fa4b5434-6e48-495e-b1df-5c1549467416{
            fill:#fff;}
        </style>
    </defs>
    <title>trein</title>
    <path class="fa4b5434-6e48-495e-b1df-5c1549467416" d="M447.72,477.87V455.11H436.44V432.36H425.17V409.6H413.89V386.84H402.61V375.47H391.33V352.71H380.06V341.33h22.55V330h11.28V56.89H402.61V34.13H391.33V22.76H368.78V11.38H346.22V0H165.78V11.38H143.22V22.76H120.67V34.13H109.39V56.89H98.11V330h11.28v11.37h22.55v11.38H120.67v11.38H109.39v22.75H98.11V409.6H86.83v22.76H75.56v22.75H64.28v22.76H53v22.75H64.28V512H86.83V500.62H98.11V489.24H413.89v11.38h11.28V512h22.55V500.62H459V477.87ZM380.06,261.69v22.75H368.78v11.38H323.67V284.44H312.39V250.31h11.28V238.93h45.11v11.38h11.28Zm-33.84,102.4v11.38H165.78V364.09h11.28V341.33H334.94v22.76ZM131.94,170.67v-91h11.28V68.27H154.5V56.89h22.56V45.51H334.94V56.89H357.5V68.27h11.28V79.64h11.28V182H131.94Zm0,102.4V250.31h11.28V238.93h45.11v11.38h11.28v34.13H188.33v11.38H143.22V284.44H131.94Zm259.39,182H120.67V443.73h11.27V421h11.28V409.6H368.78V421h11.28v22.75h11.27Z" transform="translate(-53)"/>
</svg>
