<svg xmlns="http://www.w3.org/2000/svg" viewBox="0 0 144.95 99.16"><defs><style>.b2f489a4-eb05-448a-97f2-252d61e4db96{fill:#E94E1C;}</style></defs><title>gaming</title><g id="e69888e2-2cad-4b0d-8280-410e2b6d2187" data-name="Layer 2"><g id="ac818574-cd86-41d5-bb47-496e4c1ea67b" data-name="Layer 1"><path class="b2f489a4-eb05-448a-97f2-252d61e4db96" d="M143.44,67.65V59.77c-.51-.54-1.12-.11-1.68-.35V51.48c-.51-.5-1.13,0-1.67-.41V44.83c-.5-.38-1-.14-1.6-.23-.17-2.41-.05-4.86-.07-7.3s0-4.94,0-7.42c-.57-.27-1.12-.06-1.65-.13V23.16h0v0h-1.63V21.48h-1.66a3.15,3.15,0,0,1,0,.62V18.18H131.8V16.49h-1.65V14.87H128c.16,0,.34,0,.51,0V9.92h-1.59V6.61h-1.72V3.31h-1.65V1.65h-6.61V0h-8.27V1.65c-2.2,0-4.41,0-6.61,0V3.31H100.4v3.3H98.75V9.89H97.09v5H95.44v1.62H93.79v1.69H75.57v-5H73.9V9.94c-.6-.09-1.09.11-1.54-.16-.21-1,.15-2.14-.16-3-.56-.26-1.07.07-1.52-.29l-.06-1.33c-.52-.37-1.14.09-1.59-.32,0-.47,0-.93-.07-1.34-.54-.36-1.16.12-1.67-.4V1.77c-.55-.31-1.16.14-1.6-.31V0H55.78c.07.53-.14,1.08.14,1.66h1.33c.4.53,0,1.14.35,1.62l1.33.06c.37.52-.09,1.14.32,1.59L60.59,5c.36.54-.12,1.16.4,1.67h1.28c.31.54-.14,1.16.31,1.59.48.06,1-.14,1.55.23v3.06c.6.09,1.09-.14,1.59.22v2.94c.53.38,1.14-.08,1.58.31v3.16H50.82V16.53H49.17V14.87H47.51V9.92H45.86V6.61H44.21V3.31H42.56V1.65H36V0H27.68V1.65c-2.2,0-4.41,0-6.61,0V3.31H19.42v3.3H17.77V9.92H16.11v4.95H14.46v1.66H12.81v1.65H11.16v3.3H9.5v1.66H7.85v6.61H6.39l-.13.14a.39.39,0,0,0-.06.18V44.44c-.48.34-1,.12-1.63.21-.07,1,0,2.09,0,3.16s0,2.18,0,3.25c-.48.32-1,.11-1.43.17,0,.05-.11.09-.15.14a.39.39,0,0,0-.06.18c0,2.6,0,5.2,0,7.77-.49.32-1,.12-1.46.18,0,0-.12.09-.12.14,0,2.66,0,5.32,0,7.89-.49.36-.91.18-1.3.23V85.94H1.17V89c.58.33,1.07.14,1.67.24V92.5H4.3c.5.51,0,1.13.39,1.66L6,94.24c.41.45,0,1.06.32,1.58l1.34.06c.31.46.1,1,.18,1.55H11c.32.65.1,1.2.18,1.73h6.61V97.57H21V95.89h3.31c0-.6.05-1.07.08-1.52.44-.37.95,0,1.52-.29.3-.9-.06-2,.15-3,.46-.26,1-.07,1.55-.17V87.64l1.68-.09V84.33l1.6-.07v-3c.52-.54,1.13-.08,1.68-.4V77.92c.52-.48,1.12-.08,1.68-.33v-3c.5-.38,1-.14,1.53-.22.37-1,0-2.11.21-3.16.44-.26.93-.07,1.54-.17V67.81l1.53-.08c.42-.45,0-1.07.33-1.59l1.34-.06c.3-.46.09-1,.15-1.41.28-.29,56-.43,62.68-.15.26.44.06.93.13,1.4.44.44,1.06,0,1.61.32,0,.42,0,.88.07,1.35.44.42,1.06,0,1.6.34v2.94c.51.35,1,.13,1.6.22v3.22h1.68v3.31l1.62.1v2.94c.5.6,1.12.13,1.66.43V84c.52.52,1.13.07,1.68.39v2.94c.52.5,1.14,0,1.67.41V90.7c.51.36,1,.13,1.56.21.3,1,0,2.11.18,3.23H120c.53.52,0,1.14.41,1.68h2.93c.47.52,0,1.14.4,1.68h3c.29.58.07,1.13.14,1.66h6.61V97.57h3.26V96.09c.52-.47,1.12-.07,1.66-.31,0-.49,0-1,.07-1.42.44-.32.94-.09,1.42-.16.47-.42,0-1,.28-1.52.43-.3.93,0,1.52-.24V89.29l1.68-.08V86l1.61-.07v-18C144.6,67.49,144,68,143.44,67.65ZM26.33,18.08h11v9H35.21v2h-2v2H30.47v-2h-2v-2H26.33Zm-.56,18.66v1.78H18.19V29.23h7.58V31h1.7v1.72h1.72V35H27.47v1.72ZM37.31,49.69h-11v-9h2.12v-2h2v-2h2.71v2h2v2h2.11Zm8.12-11.15H37.85V36.75h-1.7V35H34.43V32.75h1.72V31h1.7V29.25h7.58Zm59.85-19.78h1.26V16.05H108V14.58h2.74V13.33h4.15v1.25h2.67v1.47H119v2.71h1.32V22.9H119v2.71h-1.43V27h-2.67v1.33h-4.15V27H108V25.61h-1.43V22.9h-1.26Zm-.79,19.85V40h-2.68v1.33H97.66V40H94.92V38.61H93.49V35.9H92.23V31.76h1.26V29.05h1.43V27.58h2.74V26.33h4.15v1.25h2.68v1.47h1.42v2.71h1.32V35.9h-1.32v2.71ZM120.3,49.15H119v2.71h-1.43v1.38h-2.68v1.33h-4.14V53.24H108V51.86h-1.43V49.15H105.3V45h1.26V42.29H108V40.82h2.74V39.57h4.14v1.25h2.68v1.47H119V45h1.32ZM133.42,36H132.1v2.71h-1.43v1.39H128v1.33h-4.14V40.05h-2.74V38.66h-1.43V36h-1.26V31.81h1.26V29.1h1.43V27.63h2.74V26.38H128v1.25h2.68V29.1h1.43v2.71h1.32Z"/></g></g></svg>
