<svg xmlns="http://www.w3.org/2000/svg" viewBox="0 0 56.85 103.12">
  <defs>
    <style>.fbd3151b-0799-47ed-aea4-df64287930df{
      fill:#E94E1C;
      }</style>
  </defs>
  <title>sprekers</title>
  <g id="e0d9fbe3-1b0f-48c0-ac76-e19d116f298d" data-name="Layer 2">
    <g id="ad8ac8dd-3a79-429b-ab4d-2ca1d1d591cf" data-name="Layer 1">
      <path class="fbd3151b-0799-47ed-aea4-df64287930df" d="M14.22,64.05h3.51v3.48h21.4V64h3.58V56.88h3.46V55.47h0V34.27H27.09V30.64H46.18V28.48H27.09V24.85H46.18V22.69H27.09V19.06H46.18V16.9H27.09V13.27H46.18V7.05H42.65V3.5H39.08V0H17.74V3.55H14.16V7.1H10.7V57h3.52Z"/>
      <path class="fbd3151b-0799-47ed-aea4-df64287930df" d="M49.75,35.63V60.5H46.21v7.11H42.63v3.57h-7.1v3.46H21.28V71.13H14.14V67.55H10.6v-7.1H7.06V35.62H0v32H3.55v3.58H7.1v3.57h7.1V78.3h7.13v3.54H24.8V96.1H7.13v7H49.74V96.05H32.06V81.79h3.52V78.25h7.1V74.67h7.14V71.13h3.57V67.56h3.46V35.63Z"/>
    </g>
  </g>
</svg>
