<svg xmlns="http://www.w3.org/2000/svg" width="41" height="105.04" viewBox="0 0 41 105.04">
  <defs>
    <style>
      .cls-1 {
        fill: #fff;
      }
    </style>
  </defs>
  <title>sprekers</title>
  <g id="Layer_2" data-name="Layer 2">
    <g id="Layer_1-2" data-name="Layer 1">
      <path class="cls-1" d="M27.75,62.75a8.65,8.65,0,0,1-6,7.59c-.72.26-.59.75-.59,1.24q0,14.32,0,28.65c0,.35,0,.69,0,1,0,2.66-1.17,3.76-3.82,3.77-.83,0-1.66,0-2.49,0a3,3,0,0,1-3.09-2.75,12.22,12.22,0,0,1-.07-1.66q0-16.35,0-32.7a3.35,3.35,0,0,0-.27-1.49,8.46,8.46,0,0,1,.5-9.4c2.15-3,5.22-4.11,8.89-3.52-.73-.77-3.29-1-5.36-.43-4.36,1.23-6.86,4.17-7.75,8.64a11.91,11.91,0,0,1-6.29-5.6c-1.64-3-1.61-6.13-1-9.38,1-5.89,2-11.79,2.92-17.69a5.84,5.84,0,0,1,.18-.61L8.68,29c5.53.59,11.07,1.2,16.6,1.78,1.21.13,1.61-.15,1.7-1.08s-.28-1.28-1.56-1.42L3.85,26,4,24.45l7.5.8c4.85.52,9.69,1,14.54,1.57.79.09,1.37-.06,1.55-.94a1.13,1.13,0,0,0-1.06-1.53l-12-1.28L4.47,22l.33-2.14,6.13.64q8,.86,16,1.74a1.13,1.13,0,0,0,1.42-1.11c.11-.88-.3-1.3-1.23-1.4-7-.73-14-1.49-20.94-2.25-.27,0-.54-.09-.9-.15l.28-2c1.9.19,3.75.37,5.59.57,5.43.59,10.86,1.19,16.29,1.77.59.06,1.26.28,1.65-.46.54-1,0-1.87-1.17-2L6.35,12.87a1.61,1.61,0,0,1-.31-.1C6.3,7.77,8.47,3.89,13.12,2,21.33-1.41,29.21-.44,36.35,4.86c4,2.94,5.24,7.1,4.42,12q-3,18.2-6,36.42a12.53,12.53,0,0,1-6.1,9.39,2.69,2.69,0,0,1-.94.11"/>
    </g>
  </g>
</svg>
