<svg xmlns="http://www.w3.org/2000/svg" width="89.32" height="98.28" viewBox="0 0 89.32 98.28">
  <defs>
    <style>
      .cls-1 {
        fill: #fff;
      }
    </style>
  </defs>
  <title>Asset 6</title>
  <g id="Layer_2" data-name="Layer 2">
    <g id="Layer_1-2" data-name="Layer 1">
      <g>
        <path class="cls-1" d="M89.32,44.69a8,8,0,0,1-.94,1.8c-1.14,1.26-2.36,2.45-3.59,3.63a2.79,2.79,0,0,1-4.09-.16L66.47,35.74,46.6,15.87a2.59,2.59,0,0,0-4,0L12.89,45.55,8.54,49.9a2.81,2.81,0,0,1-4.32,0C3.11,48.89,2,47.79,1,46.71a2.82,2.82,0,0,1,0-4.29L24.26,19.17l18-18c1.6-1.6,3.11-1.59,4.7,0L88.07,42.31a3.07,3.07,0,0,1,1.08,2.29Z"/>
        <path class="cls-1" d="M44.6,98.28h-35c-1.52,0-1.93-.42-1.93-2,0-1.37,0-2.75,0-4.13a1.38,1.38,0,0,1,1.54-1.54H79.65c1.48,0,1.9.41,1.9,1.91q0,2,0,3.93c0,1.3-.47,1.78-1.77,1.78H44.6"/>
        <path class="cls-1" d="M54.16,83.59c-.69-.11-1.39-.18-2.06-.35-.84-.21-1-.53-.72-1.34l.19-.56A1.77,1.77,0,0,0,51,79.13a14.39,14.39,0,0,0-2.76-1.42,1.83,1.83,0,0,0-2.26.85c-.89,1.26-1.22,1.31-2.29.2A14.92,14.92,0,0,1,42,76.61c-.42-.65-.26-1,.43-1.36L43,75a1.83,1.83,0,0,0,1.14-1.89,6.21,6.21,0,0,0-1-3.2A1.83,1.83,0,0,0,41,69c-1.36.32-1.83.33-1.8-1.57a14.39,14.39,0,0,1,.32-2.66c.15-.71.54-.86,1.23-.64.25.08.49.18.74.25a1.86,1.86,0,0,0,2-.53,6.28,6.28,0,0,0,1.57-3.11,1.93,1.93,0,0,0-1-2.06c-1.23-.86-1.28-1.2-.18-2.25a15.37,15.37,0,0,1,2.21-1.73c.62-.4,1-.24,1.31.43.1.19.18.4.28.59a1.79,1.79,0,0,0,2.07,1.13,14,14,0,0,0,2.95-1,1.8,1.8,0,0,0,.95-2.16c-.3-1.54-.13-1.78,1.47-1.75a14.35,14.35,0,0,1,2.65.29c.82.17,1,.6.71,1.34C57.93,55,58,56,59.81,57a8.41,8.41,0,0,0,1.79.77A1.9,1.9,0,0,0,64,56.91c.84-1.2,1.18-1.26,2.2-.19A16.58,16.58,0,0,1,68,59c.38.57.21.94-.4,1.28-.13.07-.28.13-.41.19a1.92,1.92,0,0,0-1.33,2.39,10.25,10.25,0,0,0,.93,2.69,1.78,1.78,0,0,0,2.21,1c1.26-.26,1.73-.36,1.76,1.44a12.32,12.32,0,0,1-.29,2.66c-.18.87-.55,1-1.38.74l-.56-.19a1.73,1.73,0,0,0-2.16.61,14.16,14.16,0,0,0-1.43,2.76,1.85,1.85,0,0,0,.88,2.31c1.23.86,1.27,1.22.19,2.25a15.53,15.53,0,0,1-2.09,1.67c-.71.47-1.14.34-1.45-.43-.58-1.43-1.29-2.09-3.42-1.49a8.36,8.36,0,0,0-2,.9,1.75,1.75,0,0,0-.81,1.92c.28,1.78,0,2.05-2,2m8.77-15.82a8,8,0,1,0-8,8,8,8,0,0,0,8-8"/>
        <path class="cls-1" d="M43.73,53.38c-.24.29-.38.58-.6.71a6.71,6.71,0,0,1-1.26.53.72.72,0,0,0-.56.77c0,.76-.08,1.53,0,2.29a1.06,1.06,0,0,0,.42.71,7,7,0,0,0,1.18.56A.76.76,0,0,1,43.34,60q-.61,1.48-1.31,2.92a.71.71,0,0,1-1.1.34c-1.21-.84-2-.49-3,.56s-1.09,1.06-.58,2.51c.28.79.21,1.08-.55,1.41s-1.74.69-2.62,1A.83.83,0,0,1,33,68.12c-.26-1.31-1-1.58-2.31-1.62s-2,.21-2.38,1.51a.78.78,0,0,1-1.18.55c-.92-.39-1.84-.79-2.74-1.22A.8.8,0,0,1,24,66.08c.7-1.1.45-1.84-.47-2.78S22,62,20.8,62.66a.82.82,0,0,1-1.27-.49c-.37-.91-.71-1.83-1-2.75a.83.83,0,0,1,.59-1.17c.35-.13.69-.28,1-.39a.76.76,0,0,0,.57-.84c0-.7,0-1.39.06-2.09A.8.8,0,0,0,20.2,54c-.36-.14-.72-.3-1.08-.46a.76.76,0,0,1-.47-1.06c.41-1,.85-2,1.3-2.92.24-.52.68-.56,1.16-.35a10.13,10.13,0,0,1,1,.45.77.77,0,0,0,1-.19c.49-.49,1-1,1.51-1.45a.74.74,0,0,0,.26-1c-.16-.33-.26-.69-.4-1a.85.85,0,0,1,.52-1.27c.93-.37,1.87-.71,2.81-1a.74.74,0,0,1,1.07.54c.28,1.4,1.08,1.76,2.45,1.67,1.55-.11,1.56,0,2.22-1.37.34-.72.62-.88,1.34-.61.89.34,1.76.76,2.62,1.17a.83.83,0,0,1,.41,1.3c-.71,1.08-.4,1.78.45,2.72s1.68,1.32,2.85.64a.65.65,0,0,1,1,.21c.52,1.09,1,2.22,1.48,3.39M23.87,56.24A7.13,7.13,0,1,0,31,49.12a7.14,7.14,0,0,0-7.1,7.12"/>
        <path class="cls-1" d="M24.05,79.58a6.05,6.05,0,0,0-.76.33c-.34.21-.61.12-.75-.21-.32-.74-.61-1.49-.86-2.25-.12-.36,0-.63.46-.69a1.51,1.51,0,0,0,1.32-1.28A8.24,8.24,0,0,0,23.68,74a1.44,1.44,0,0,0-.81-1.51c-.45-.22-.5-.53-.23-.89q.67-.89,1.4-1.72a.52.52,0,0,1,.92,0,1.39,1.39,0,0,0,1.64.49,10.34,10.34,0,0,0,1.63-.65A1.32,1.32,0,0,0,29,68.41c0-.53.23-.73.7-.67.71.09,1.42.2,2.13.34.43.08.66.32.46.8a1.41,1.41,0,0,0,.38,1.67A9.22,9.22,0,0,0,34,71.64a1.32,1.32,0,0,0,1.54,0c.48-.33.78-.17,1,.3.27.66.51,1.34.75,2,.14.4,0,.69-.44.75A1.51,1.51,0,0,0,35.53,76a8.82,8.82,0,0,0-.23,1.48A1.44,1.44,0,0,0,36.11,79a.53.53,0,0,1,.23.9c-.44.59-.91,1.17-1.4,1.72a.52.52,0,0,1-.92,0,1.41,1.41,0,0,0-1.64-.5,10.12,10.12,0,0,0-1.46.55A1.43,1.43,0,0,0,30,83.07c0,.52-.23.73-.71.67-.71-.09-1.42-.19-2.13-.34-.41-.08-.66-.32-.45-.81a1.47,1.47,0,0,0-.38-1.68,3.71,3.71,0,0,0-2.28-1.34m9.18-3.87A3.76,3.76,0,0,0,29.48,72a3.77,3.77,0,1,0,.06,7.53,3.76,3.76,0,0,0,3.7-3.79"/>
        <path class="cls-1" d="M55,63.25a4.52,4.52,0,1,1-4.52,4.54A4.53,4.53,0,0,1,55,63.25"/>
        <path class="cls-1" d="M26.08,56.25A4.87,4.87,0,0,1,31,51.32a4.93,4.93,0,1,1-4.89,4.93"/>
        <path class="cls-1" d="M32.31,75.73a2.81,2.81,0,0,1-2.81,2.84,2.83,2.83,0,1,1,0-5.66,2.82,2.82,0,0,1,2.82,2.83"/>
      </g>
    </g>
  </g>
</svg>
